<?xml version="1.0" encoding="utf-8"?>
<!-- Generator: Adobe Illustrator 23.0.2, SVG Export Plug-In . SVG Version: 6.00 Build 0)  -->
<svg version="1.1" id="Livello_1" xmlns="http://www.w3.org/2000/svg" xmlns:xlink="http://www.w3.org/1999/xlink" x="0px" y="0px"
	 viewBox="0 0 117.27 127.34" style="enable-background:new 0 0 117.27 127.34;" xml:space="preserve">
<style type="text/css">
	.st0{fill:#FFFFFF;}
	.st1{fill:#AF2219;}
	.st2{fill:#F4A400;}
	.st3{fill:#E52C1E;}
	.st4{fill:#F4A503;}
	.st5{fill:#AF2118;}
</style>
<polygon class="st0" points="44.15,106.14 92.39,96.67 88.36,38.11 46.45,38.11 "/>
<g>
	<path class="st1" d="M64.05,35.63c0,0.17-0.02,0.33-0.02,0.5c0.77,0.01,1.53,0.03,2.3,0.05c0.01-0.18,0.02-0.36,0.02-0.55
		c0-3.63-1.49-6.9-3.86-9.19c-0.83,0.21-1.61,0.55-2.33,1.01C62.52,29.31,64.05,32.28,64.05,35.63z"/>
</g>
<polygon class="st2" points="44.12,105.92 25.59,97.75 36.14,92.94 "/>
<polygon class="st3" points="25.59,97.75 31.12,34.48 38.36,35.21 36.14,92.94 "/>
<path class="st4" d="M89.72,36.17L76.28,35.5c0.01-0.19,0.03-0.38,0.03-0.57c0-6.9-5.37-12.52-11.97-12.52
	c-2.07,0-4.02,0.55-5.72,1.52c-0.82,0.47-1.57,1.04-2.26,1.69c-2.3,2.16-3.79,5.24-3.96,8.68l-7.57-0.38
	c-0.18-0.01-0.33,0.13-0.33,0.32l-0.74,71.04l0.36,0.64l2.32-0.42l11.04-2.11l0.17-0.03l0.17-0.03c-0.06-0.29-0.1-0.59-0.1-0.9
	c-0.03-2.18,0.03-5.85,0.11-8.19c0.07-2.29,0.18-4.62,0.28-6.87l0.05-1.14c0.09-2.09,0.18-3.82,0.27-5.46
	c0.1-1.73,0.22-3.6,0.38-5.72l0.03-0.43c0.08-1.17,0.17-2.37,0.31-3.55c0.23-2.02-0.48-3.51-2.18-4.54
	c-1.43-0.86-2.44-2.15-3.02-3.81c-0.42-1.21-0.36-2.42-0.3-3.71l0.1-2.22c0.08-1.75,0.16-3.49,0.24-5.24
	c0.05-1.17,0.11-2.34,0.16-3.51c0.07-1.5,0.13-3.01,0.2-4.51c0.03-0.53,0.48-1,1.02-1.05c0.05-0.01,0.1-0.01,0.16-0.01
	c0.32,0,0.62,0.11,0.83,0.3c0.24,0.22,0.36,0.54,0.35,0.9c-0.03,1.16-0.07,2.31-0.11,3.46c-0.02,0.65-0.05,1.31-0.07,1.96
	c-0.04,1.33-0.09,2.67-0.13,4c-0.04,1.34-0.08,2.68-0.13,4.02c-0.03,0.84,0.54,1.51,1.33,1.54c0.41,0.01,0.78-0.11,1.06-0.37
	c0.27-0.26,0.43-0.63,0.43-1.04c0.02-1.53,0.04-3.07,0.06-4.6l0.02-1.98h0.01l-0.01-0.34h0c-0.01-0.68,0-1.37,0.01-2.03
	c0.01-0.64,0.02-1.28,0.01-1.91c-0.01-0.78,0-1.64,0.02-2.69c0.01-0.67,0.46-1.21,1.07-1.29c0.7-0.09,1.27,0.26,1.44,0.89
	c0.06,0.23,0.07,0.5,0.09,0.78c0.11,2.67,0.22,5.35,0.32,8.02l0.12,3.03c0.02,0.68,0.05,1.37,0.09,2.05c0.02,0.4,0.2,0.78,0.5,1.05
	c0.28,0.25,0.64,0.38,1,0.36c0.37-0.02,0.73-0.2,0.98-0.48c0.25-0.29,0.39-0.66,0.36-1.02l-0.06-1.01c-0.05-0.85-0.11-1.7-0.17-2.55
	l-0.67-9.94c-0.03-0.39,0.09-0.7,0.36-0.96c0.37-0.34,0.79-0.42,1.27-0.24c0.45,0.17,0.7,0.54,0.75,1.09
	c0.03,0.33,0.05,0.66,0.07,0.98c0.02,0.29,0.04,0.59,0.06,0.88c0.14,1.86,0.29,3.71,0.44,5.57l0.14,1.81
	c0.04,0.5,0.08,0.99,0.12,1.49c0.1,1.21,0.2,2.45,0.27,3.68c0.02,0.33,0.05,0.66,0.08,0.99c0.08,0.85,0.16,1.73,0.03,2.6
	c-0.33,2.15-1.39,3.8-3.25,5.03c-1.43,0.95-2.09,2.29-1.94,3.99c0.05,0.57,0.12,1.14,0.19,1.69c0.05,0.41,0.1,0.82,0.15,1.23
	c0.22,2.03,0.43,4.06,0.62,6.09c0.11,1.13,0.2,2.26,0.3,3.4l0.13,1.53c0.12,1.44,0.24,2.89,0.35,4.34c0.13,1.75,0.29,3.82,0.41,5.87
	c0.19,3.06,0.29,5.49,0.31,6.34c0.01,0.24,0,0.59-0.02,0.98l0.17-0.03l0.17-0.03l10.55-2.02l0.18-0.03l0.17-0.03
	c0.06-2.62,0.13-5.19,0.22-7.65c0.14-3.54,0.27-6.42,0.42-9.06c0.11-2.03,0.26-4.1,0.4-6.09c0.06-0.9,0.13-1.8,0.18-2.7
	c0-0.03,0-0.07,0-0.1l0-0.22l-0.16-0.01c-0.15-0.01-0.29-0.01-0.43-0.02c-0.3-0.01-0.58-0.02-0.86-0.05
	c-1.1-0.14-1.97-1.1-1.99-2.18c-0.02-1.06-0.04-2.12-0.06-3.18c-0.06-3.15-0.13-6.41-0.11-9.62c0.03-4.93,1.29-9.67,3.76-14.09
	c0.48-0.85,1.03-1.68,1.57-2.49c0.19-0.28,0.38-0.57,0.57-0.85c0.18-0.28,0.47-0.27,0.68-0.22c0.27,0.07,0.44,0.25,0.49,0.54
	c0.01,0.08,0.02,0.16,0.02,0.25l0.29,19.65c0.05,3.92,0.11,7.96,0.19,11.95c0.02,0.83,0.12,1.68,0.21,2.49
	c0.04,0.38,0.09,0.77,0.13,1.15l0.06,0.66c0.07,0.77,0.15,1.54,0.22,2.31c0.11,1.15,0.21,2.29,0.3,3.43c0.12,1.5,0.24,3,0.35,4.5
	c0.17,2.39,0.33,4.55,0.47,6.75l0.02,0.27c0.07,1.05,0.13,2.13,0.18,3.21l0.17-0.03l0.17-0.03l7.66-1.47l0.89-0.21L89.72,36.17z
	 M73.99,35.38L54.7,34.42c0.15-3.25,1.74-6.11,4.12-7.87c0.71-0.52,1.49-0.94,2.32-1.25c1.01-0.38,2.08-0.59,3.21-0.59
	c5.33,0,9.67,4.59,9.67,10.22C74.01,35.08,74,35.23,73.99,35.38z"/>
<path class="st5" d="M54.38,23.11c-6.16,0-11.24,4.9-11.88,11.17l-1.14,0.35l-1.24,0.24l-1.76,0.34l-2.22,57.73l7.98,12.98
	l0.78-72.19c0.84-4.73,4.76-8.33,9.48-8.33c0.03,0,0.07,0.01,0.1,0.01c0.68-0.77,1.44-1.46,2.27-2.05
	C55.99,23.19,55.19,23.11,54.38,23.11z"/>
</svg>
